<svg width="24" height="24" viewBox="0 0 24 24" fill="none" xmlns="http://www.w3.org/2000/svg">
<g clip-path="url(#clip0_1_801)">
<path d="M21.8605 16.5465H7.95349C4.11318 16.5465 1 19.6597 1 23.5H22.9302L20.9303 11.035C20.85 10.5132 20.4009 10.1279 19.8729 10.1279H19.186" stroke="black" stroke-linejoin="round"/>
<path d="M9.55779 10.1279C9.24913 10.1279 8.98571 10.3511 8.93497 10.6555L7.95312 16.5465" stroke="black"/>
<path d="M11.6987 19.2559C12.0133 19.2559 12.2684 19.0008 12.2684 18.6861C12.2684 18.3714 12.0133 18.1163 11.6987 18.1163C11.384 18.1163 11.1289 18.3714 11.1289 18.6861C11.1289 19.0008 11.384 19.2559 11.6987 19.2559Z" stroke="black"/>
<path d="M14.9057 19.2559C15.2204 19.2559 15.4755 19.0008 15.4755 18.6861C15.4755 18.3714 15.2204 18.1163 14.9057 18.1163C14.591 18.1163 14.3359 18.3714 14.3359 18.6861C14.3359 19.0008 14.591 19.2559 14.9057 19.2559Z" stroke="black"/>
<path d="M12.2344 3.7093L12.2344 0.5L18.653 0.5L18.653 3.7093L12.2344 3.7093Z" stroke="black"/>
<path d="M11.7646 13.3372C12.3168 13.3372 12.7646 12.8894 12.7646 12.3372V11.1976H10.625V12.3372C10.625 12.8894 11.0727 13.3372 11.625 13.3372H11.7646Z" stroke="black"/>
<path d="M13.9052 14.4071C14.4575 14.4071 14.9052 13.9594 14.9052 13.4071V11.1978H12.7656V13.4071C12.7656 13.9594 13.2134 14.4071 13.7656 14.4071H13.9052Z" stroke="black"/>
<path d="M14.9062 9.05811H16.0457C16.598 9.05811 17.0457 9.50583 17.0457 10.0581V13.407C17.0457 13.9593 16.598 14.407 16.0457 14.407H15.9062C15.354 14.407 14.9062 13.9593 14.9062 13.407V12.1146" stroke="black"/>
<path d="M19.1875 10.0578L19.1875 12.3369C19.1875 12.8892 18.7398 13.3369 18.1875 13.3369L18.048 13.3369C17.4957 13.3369 17.048 12.8892 17.048 12.3369L17.048 10.0578C17.048 9.50556 17.4957 9.05784 18.048 9.05784L18.1875 9.05784C18.7398 9.05784 19.1875 9.50556 19.1875 10.0578Z" stroke="black"/>
<path d="M9.55859 9.19154V10.5287C9.55859 10.898 9.87789 11.1973 10.2718 11.1973H14.9074C15.4983 11.1973 15.9772 10.7483 15.9772 10.1944C15.9772 9.64055 15.4983 9.05782 14.9074 9.05782H12.4113L14.3726 6.91828M9.55859 10.1944V6.58061C9.55859 6.28597 9.68852 6.00632 9.91371 5.81632L12.4113 3.70898" stroke="black" stroke-linecap="round" stroke-linejoin="round"/>
<path d="M19.187 10.6628V4.42253L18.1172 3.70935" stroke="black"/>
</g>
<defs>
<clipPath id="clip0_1_801">
<rect width="24" height="24" fill="white"/>
</clipPath>
</defs>
</svg>
