<svg width="24" height="24" viewBox="0 0 24 24" fill="none" xmlns="http://www.w3.org/2000/svg">
<path d="M2.69141 8.79167L4.02623 13.5833L8.92057 19.3333H13.37L16.0194 18.2634C16.4586 18.086 16.5839 17.5236 16.2616 17.1765C16.1214 17.0255 15.9199 16.9467 15.7144 16.9625L13.37 17.1429L10.2554 13.5833H12.4801L14.425 15.6779C14.8331 16.1173 15.5118 16.1659 15.9783 15.7891C16.4927 15.3736 16.5474 14.6094 16.0975 14.1248L12.4801 10.2292L8.92057 7.35417V4" stroke="black" stroke-linejoin="round"/>
<path d="M2.69141 8.92857V4" stroke="black"/>
<path d="M8.16797 13.6582L10.906 17.143L12.5489 19.1344" stroke="black" stroke-linecap="round"/>
<path d="M6.52344 14.4048L10.9044 19.3334" stroke="black" stroke-linecap="round"/>
<path d="M0.5 16.0479L3.30561 17.7969C4.80314 18.7304 6.71129 18.6887 8.16666 17.6908" stroke="black"/>
<path d="M16.3828 17.1425L18.4806 16.2102C20.186 15.4522 22.1822 15.8228 23.5019 17.1425" stroke="black"/>
</svg>
