<svg width="24" height="24" viewBox="0 0 24 24" fill="none" xmlns="http://www.w3.org/2000/svg">
<path d="M0.5 10.3407L2.8 22.8154H21.2L23.5 10.3407" stroke="black" stroke-linecap="round" stroke-linejoin="round"/>
<path d="M1.3125 14.8769C1.3125 14.8769 2.80101 12.6088 5.10102 12.6088C7.40102 12.6088 8.55102 14.8769 8.55102 14.8769C8.55102 14.8769 9.70102 12.6088 12.001 12.6088C14.301 12.6088 15.7004 14.8769 15.7004 14.8769C15.7004 14.8769 16.601 12.6088 18.901 12.6088C21.201 12.6088 22.6489 14.8769 22.6489 14.8769" stroke="black" stroke-linejoin="round"/>
<path fill-rule="evenodd" clip-rule="evenodd" d="M7.68761 18.6108C7.59272 18.7729 7.64903 18.9801 7.81339 19.0737C7.97775 19.1673 8.18793 19.1118 8.28282 18.9497L8.92549 17.852L10.7917 14.6644L12.297 12.0932C12.4792 11.7819 12.8828 11.6753 13.1985 11.855C13.5141 12.0347 13.6222 12.4327 13.44 12.7439L11.9347 15.3151L10.0685 18.5027C9.95669 18.6937 10.0566 18.9374 10.2716 18.998C10.4232 19.0408 10.5848 18.9763 10.6637 18.8416L14.0352 13.0828C14.2174 12.7716 14.621 12.6649 14.9367 12.8446C15.2523 13.0243 15.3604 13.4223 15.1782 13.7336L12.6693 18.0189C12.5744 18.181 12.6307 18.3883 12.7951 18.4818C12.9595 18.5754 13.1696 18.5199 13.2645 18.3578L17.2787 11.5013C18.6267 9.19888 18.8855 8.03305 18.9561 7.27169C18.9707 7.11363 18.9758 6.95353 18.981 6.78917C18.9997 6.20085 19.0201 5.55805 19.4875 4.75962C19.6698 4.44837 20.0734 4.34173 20.389 4.52143C20.7046 4.70113 20.8128 5.09913 20.6305 5.41039C20.3399 5.90679 20.3304 6.17438 20.3129 6.66901C20.3059 6.86453 20.2977 7.09558 20.2704 7.3902C20.1775 8.39269 19.8336 9.74064 18.4218 12.1521C18.4205 12.1542 18.4193 12.1563 18.418 12.1585L14.4075 19.0086C13.9482 19.7932 12.9308 20.062 12.1352 19.609C12.0332 19.5509 11.9397 19.4838 11.8554 19.4092L11.8067 19.4924C11.425 20.1443 10.6424 20.4563 9.90859 20.2493C9.64306 20.1744 9.41381 20.0418 9.22858 19.8705C8.7152 20.441 7.84949 20.5971 7.15349 20.2009C6.54016 19.8517 6.23764 19.1754 6.34165 18.5245C6.19623 18.4882 6.05338 18.4318 5.91705 18.3542C5.12144 17.9012 4.84884 16.8979 5.30819 16.1133L8.01779 11.4852L8.63353 10.4335C8.59406 10.4494 8.55438 10.4651 8.5145 10.4805C7.91894 10.7099 7.2101 10.8985 6.5417 10.8319C5.81767 10.7597 5.15847 10.384 4.80704 9.57264C4.67631 9.27083 4.79394 8.92025 5.08141 8.75489C6.79149 7.77122 8.76289 6.35805 10.3186 5.17997C11.0937 4.59298 11.7606 4.06826 12.2335 3.69045C12.4698 3.50159 12.6575 3.34958 12.7859 3.24501L12.8935 3.15712L13.8383 1.54326C14.0206 1.23201 14.4242 1.12536 14.7398 1.30507C15.0554 1.48477 15.1636 1.88277 14.9813 2.19402L13.9778 3.90815C13.9393 3.97383 13.8895 4.03238 13.8306 4.08115L13.4063 3.58277C13.8306 4.08115 13.8307 4.0811 13.8306 4.08115L13.8296 4.08202L13.8269 4.08425L13.8167 4.09268L13.7773 4.12506C13.7429 4.15338 13.6921 4.19494 13.6265 4.24842C13.4952 4.35536 13.3042 4.51001 13.0643 4.7017C12.5846 5.08499 11.9085 5.61695 11.1224 6.21226C9.74952 7.2519 8.02505 8.49685 6.41882 9.4796C6.49559 9.50964 6.58056 9.52757 6.67444 9.53693C7.03252 9.57263 7.50753 9.47106 8.03422 9.26814C8.54687 9.07063 9.04138 8.80374 9.41367 8.58112C9.5982 8.47077 9.74915 8.37344 9.85302 8.30435C9.90489 8.26985 9.94485 8.24252 9.97119 8.22428L9.99912 8.20474C10.0255 8.18523 10.0532 8.16781 10.0819 8.15254C10.2573 8.05879 10.4618 8.05094 10.6393 8.12025C10.7089 8.14744 10.7743 8.1865 10.8322 8.23691C10.8958 8.29208 10.9467 8.3578 10.9838 8.42976C11.0242 8.50778 11.0472 8.59125 11.0537 8.67521C11.0617 8.77705 11.0456 8.88161 11.0028 8.98017C10.9907 9.00838 10.9765 9.03584 10.9602 9.06231L9.16078 12.136L6.45117 16.7641C6.35628 16.9262 6.4126 17.1334 6.57697 17.227C6.74133 17.3206 6.95151 17.2651 7.0464 17.103L10.5588 11.1035C10.741 10.7923 11.1446 10.6857 11.4603 10.8654C11.7759 11.0451 11.884 11.4431 11.7018 11.7543L10.6982 13.4684L7.68761 18.6108Z" fill="black"/>
</svg>
