<svg width="23" height="24" viewBox="0 0 23 24" fill="none" xmlns="http://www.w3.org/2000/svg">
<g clip-path="url(#clip0_1_828)">
<path d="M19.1555 13.816V5.51786C19.1555 5.05899 18.8432 4.65901 18.398 4.54772L17.977 4.44246C17.3458 4.28467 16.7344 4.76203 16.7344 5.4126V10.7897" stroke="black"/>
<path d="M21.5774 17.4474V7.55261C21.5774 7.00033 21.1297 6.55261 20.5774 6.55261H20.1562C19.604 6.55261 19.1562 7.00033 19.1562 7.55261V13.8158" stroke="black"/>
<path d="M21.5782 17.4474C21.5782 20.7902 18.8684 23.5 15.5256 23.5C13.0436 23.5 10.9106 22.0061 9.97656 19.8684" stroke="black"/>
<g filter="url(#filter0_f_1_828)">
<path d="M16.7358 3.4209C17.0119 3.4209 17.2358 3.19704 17.2358 2.9209C17.2358 2.64476 17.0119 2.4209 16.7358 2.4209V3.4209ZM13.8147 13.8157C13.8147 14.0918 14.0386 14.3157 14.3147 14.3157C14.5909 14.3157 14.8147 14.0918 14.8147 13.8157H13.8147ZM11.3937 15.0262C11.3937 15.3024 11.6175 15.5262 11.8937 15.5262C12.1698 15.5262 12.3937 15.3024 12.3937 15.0262H11.3937ZM15.5253 3.4209H16.7358V2.4209H15.5253V3.4209ZM14.8147 13.8157V4.13143H13.8147V13.8157H14.8147ZM15.5253 2.4209C14.5806 2.4209 13.8147 3.18673 13.8147 4.13143H14.8147C14.8147 3.73902 15.1329 3.4209 15.5253 3.4209V2.4209ZM13.1042 4.63143H14.3147V3.63143H13.1042V4.63143ZM12.3937 15.0262V11.8788H11.3937V15.0262H12.3937ZM12.3937 11.8788V5.34196H11.3937V11.8788H12.3937ZM13.1042 3.63143C12.1595 3.63143 11.3937 4.39726 11.3937 5.34196H12.3937C12.3937 4.94954 12.7118 4.63143 13.1042 4.63143V3.63143ZM9.97266 17.4473V10.7894H8.97266V17.4473H9.97266ZM9.94643 10.7514C10.3173 10.8464 10.706 11.0318 10.9914 11.2625C11.2878 11.5021 11.3937 11.7217 11.3937 11.8788H12.3937C12.3937 11.2833 12.0194 10.8076 11.62 10.4847C11.2095 10.1529 10.6866 9.90871 10.1946 9.78265L9.94643 10.7514ZM9.97266 10.7894C9.97266 10.7741 9.97578 10.7621 9.97948 10.7535C9.98331 10.7446 9.98699 10.7413 9.98665 10.7416C9.98599 10.7422 9.98039 10.7468 9.96913 10.7498C9.96368 10.7513 9.95826 10.7519 9.95347 10.752C9.94864 10.752 9.94612 10.7513 9.94643 10.7514L10.1946 9.78265C9.47469 9.59821 8.97266 10.2162 8.97266 10.7894H9.97266ZM10.4344 19.6681C10.1376 18.9887 9.97266 18.2379 9.97266 17.4473H8.97266C8.97266 18.3783 9.16713 19.2652 9.51812 20.0685L10.4344 19.6681Z" fill="black"/>
</g>
<path d="M16.3368 0.5H1.4C1.17909 0.5 1 0.679086 1 0.9V19.4684C1 19.6893 1.17909 19.8684 1.4 19.8684H16.3368C16.5577 19.8684 16.7368 19.6893 16.7368 19.4684V0.9C16.7368 0.679086 16.5577 0.5 16.3368 0.5Z" stroke="black"/>
</g>
<defs>
<filter id="filter0_f_1_828" x="7.97266" y="1.4209" width="10.2632" height="19.6476" filterUnits="userSpaceOnUse" color-interpolation-filters="sRGB">
<feFlood flood-opacity="0" result="BackgroundImageFix"/>
<feBlend mode="normal" in="SourceGraphic" in2="BackgroundImageFix" result="shape"/>
<feGaussianBlur stdDeviation="0.5" result="effect1_foregroundBlur_1_828"/>
</filter>
<clipPath id="clip0_1_828">
<rect width="23" height="24" fill="white"/>
</clipPath>
</defs>
</svg>
