<svg width="24" height="24" viewBox="0 0 24 24" fill="none" xmlns="http://www.w3.org/2000/svg">
<mask id="mask0_1_817" style="mask-type:luminance" maskUnits="userSpaceOnUse" x="0" y="2" width="24" height="21">
<path fill-rule="evenodd" clip-rule="evenodd" d="M20.4 7.4C20.4 7.49364 20.3976 7.58673 20.3929 7.67921C22.5489 8.81945 24 10.9544 24 13.4C24 17.0451 20.7765 20 16.8 20C15.7416 20 14.7365 19.7907 13.8314 19.4147C12.945 21.1848 11.1144 22.4 9 22.4C6.61579 22.4 4.59247 20.8549 3.87679 18.7113C1.66754 18.2809 0 16.3352 0 14C0 11.7626 1.53087 9.88267 3.60232 9.35063C3.60078 9.30061 3.6 9.25039 3.6 9.2C3.6 6.54903 5.74903 4.4 8.4 4.4C9.06593 4.4 9.70018 4.53561 10.2767 4.78072C11.1983 3.12225 12.9681 2 15 2C17.9823 2 20.4 4.41766 20.4 7.4Z" fill="white"/>
</mask>
<g mask="url(#mask0_1_817)">
<path d="M20.3929 7.67921L19.3942 7.62835L19.3618 8.26511L19.9254 8.56319L20.3929 7.67921ZM13.8314 19.4147L14.215 18.4912L13.3544 18.1337L12.9372 18.9669L13.8314 19.4147ZM3.87679 18.7113L4.82532 18.3946L4.64058 17.8413L4.06802 17.7298L3.87679 18.7113ZM3.60232 9.35063L3.85109 10.3192L4.62651 10.12L4.60184 9.31982L3.60232 9.35063ZM10.2767 4.78072L9.88536 5.70099L10.7136 6.05314L11.1507 5.26648L10.2767 4.78072ZM21.3916 7.73007C21.3972 7.62067 21.4 7.51062 21.4 7.4H19.4C19.4 7.47667 19.398 7.5528 19.3942 7.62835L21.3916 7.73007ZM25 13.4C25 10.5384 23.3018 8.08641 20.8604 6.79522L19.9254 8.56319C21.796 9.55249 23 11.3703 23 13.4H25ZM16.8 21C21.2451 21 25 17.6775 25 13.4H23C23 16.4127 20.3079 19 16.8 19V21ZM13.4478 20.3382C14.4738 20.7644 15.6092 21 16.8 21V19C15.874 19 14.9992 18.8169 14.215 18.4912L13.4478 20.3382ZM9 23.4C11.5074 23.4 13.6762 21.9579 14.7255 19.8624L12.9372 18.9669C12.2137 20.4117 10.7214 21.4 9 21.4V23.4ZM2.92826 19.028C3.7761 21.5674 6.17273 23.4 9 23.4V21.4C7.05885 21.4 5.40885 20.1423 4.82532 18.3946L2.92826 19.028ZM-1 14C-1 16.8228 1.01554 19.1727 3.68556 19.6928L4.06802 17.7298C2.31953 17.3891 1 15.8476 1 14H-1ZM3.35355 8.38207C0.850754 9.0249 -1 11.295 -1 14H1C1 12.2301 2.21098 10.7404 3.85109 10.3192L3.35355 8.38207ZM2.6 9.2C2.6 9.26067 2.60093 9.32115 2.60279 9.38144L4.60184 9.31982C4.60062 9.28006 4.6 9.24012 4.6 9.2H2.6ZM8.4 3.4C5.19675 3.4 2.6 5.99675 2.6 9.2H4.6C4.6 7.10132 6.30132 5.4 8.4 5.4V3.4ZM10.6679 3.86045C9.96998 3.56369 9.20282 3.4 8.4 3.4V5.4C8.92903 5.4 9.43038 5.50754 9.88536 5.70099L10.6679 3.86045ZM15 1C12.5905 1 10.4935 2.33195 9.40256 4.29497L11.1507 5.26648C11.9032 3.91254 13.3457 3 15 3V1ZM21.4 7.4C21.4 3.86538 18.5346 1 15 1V3C17.4301 3 19.4 4.96995 19.4 7.4H21.4Z" fill="black"/>
</g>
<path d="M7.19922 9.30183C9.75986 8.61571 12.5131 9.69887 13.1993 12.2595" stroke="black" stroke-linecap="round"/>
<path d="M12.1495 15.3798C12.0952 12.7294 14.1997 10.5368 16.8501 10.4824" stroke="black" stroke-linecap="round"/>
</svg>
