<svg width="24" height="24" viewBox="0 0 24 24" fill="none" xmlns="http://www.w3.org/2000/svg">
<path d="M21.688 3.37934C20.9252 1.82518 18.4196 3.2761 16.8654 4.03892C16.5018 4.21738 16.1321 6.13187 15.7972 6.3092C15.4377 6.49958 16.1944 4.45039 14.7874 5.14099C14.0065 5.58966 13.3141 6.03128 12.7013 6.46039C12.4348 6.6471 12.5168 7.85418 12.2797 8.03571C12.013 8.23982 12.5194 7.39268 11.1997 7.61399C7.88759 8.16939 7.01724 8.7054 7.19836 9.0744C7.39386 9.47272 10.6159 11.9443 14.2956 10.9984C15.0708 10.7991 13.9683 9.96237 14.1916 9.89728C14.4087 9.83402 15.3873 10.6877 15.6159 10.6136C16.8443 10.2155 18.2396 9.65642 19.8068 8.8872C21.361 8.12438 23.2571 6.57622 21.688 3.37934Z" stroke="black" stroke-width="0.8" stroke-linecap="round"/>
<mask id="mask0_1_730" style="mask-type:luminance" maskUnits="userSpaceOnUse" x="0" y="12" width="6" height="10">
<path d="M4.39676 12.8257H1.27123C0.845293 12.8257 0.5 13.171 0.5 13.5969V20.4568C0.5 20.8828 0.845293 21.2281 1.27123 21.2281H4.39676C4.8227 21.2281 5.16799 20.8828 5.16799 20.4568V13.5969C5.16799 13.171 4.8227 12.8257 4.39676 12.8257Z" fill="white"/>
</mask>
<g mask="url(#mask0_1_730)">
<path d="M4.39676 12.8257H1.27123C0.845293 12.8257 0.5 13.171 0.5 13.5969V20.4568C0.5 20.8828 0.845293 21.2281 1.27123 21.2281H4.39676C4.8227 21.2281 5.16799 20.8828 5.16799 20.4568V13.5969C5.16799 13.171 4.8227 12.8257 4.39676 12.8257Z" stroke="black" stroke-width="2"/>
</g>
<path d="M9.83596 16.5604L15.7428 17.2987C16.5722 17.4024 17.3048 16.7557 17.3048 15.9199C17.3048 15.2191 16.7829 14.6279 16.0875 14.541L10.3327 13.8217C10.0037 13.7805 9.6702 13.7927 9.34507 13.8578L5.16797 14.6932" stroke="black" stroke-linecap="round" stroke-linejoin="round"/>
<path d="M5.16797 18.8614C4.89183 18.8614 4.66797 19.0852 4.66797 19.3614C4.66797 19.6375 4.89183 19.8614 5.16797 19.8614V18.8614ZM7.03517 19.3614L7.1843 18.8841C7.13603 18.869 7.08574 18.8614 7.03517 18.8614V19.3614ZM16.0508 20.4742L16.3607 20.8668L16.3705 20.8586L16.0508 20.4742ZM22.4396 15.1602L22.1896 14.7272C22.165 14.7413 22.1416 14.7576 22.1198 14.7758L22.4396 15.1602ZM21.0392 12.8262L20.7892 12.3932C20.7841 12.3961 20.7791 12.3991 20.7742 12.4022L21.0392 12.8262ZM17.0398 14.7362C16.8056 14.8825 16.7344 15.191 16.8808 15.4252C17.0271 15.6593 17.3356 15.7305 17.5698 15.5842L17.0398 14.7362ZM5.16797 19.8614H7.03517V18.8614H5.16797V19.8614ZM6.88603 19.8386L12.4738 21.5848L12.7721 20.6303L7.1843 18.8841L6.88603 19.8386ZM16.3705 20.8586L22.7593 15.5446L22.1198 14.7758L15.7311 20.0898L16.3705 20.8586ZM20.7742 12.4022L17.0398 14.7362L17.5698 15.5842L21.3042 13.2502L20.7742 12.4022ZM12.4738 21.5848C13.8085 22.0019 15.2632 21.7333 16.3607 20.8668L15.741 20.0817C14.9026 20.7436 13.7916 20.9489 12.7721 20.6303L12.4738 21.5848ZM21.2892 13.2592C21.7165 13.0124 22.2485 13.1535 22.4733 13.543L23.3394 13.043C22.8167 12.1377 21.6565 11.8924 20.7892 12.3932L21.2892 13.2592ZM22.4733 13.543C22.7201 13.9703 22.5791 14.5023 22.1896 14.7272L22.6896 15.5932C23.5948 15.0705 23.8401 13.9103 23.3394 13.043L22.4733 13.543Z" fill="black"/>
<path d="M19.6997 5.32812C17.5745 6.98254 12.5589 10.2884 9.48521 9.23857C6.41149 8.18877 4.69793 7.60352 3.30078 7.12634" stroke="black" stroke-width="0.8" stroke-linecap="round" stroke-linejoin="round"/>
</svg>
