<svg width="24" height="24" viewBox="0 0 24 24" fill="none" xmlns="http://www.w3.org/2000/svg">
<path d="M15.9895 16.7433L17.0001 14.0122L18.0108 16.7433C18.1019 16.9897 18.2961 17.1839 18.5425 17.2751L21.2736 18.2857L18.5425 19.2963C18.2961 19.3875 18.1019 19.5817 18.0108 19.8281L17.0001 22.5592L15.9895 19.8281C15.8984 19.5817 15.7041 19.3875 15.4578 19.2963L12.7266 18.2857L15.4578 17.2751C15.7041 17.1839 15.8984 16.9897 15.9895 16.7433Z" stroke="black"/>
<path d="M7.37267 5.83996L9.00064 1.44043L10.6286 5.83996C10.7198 6.0863 10.914 6.28053 11.1603 6.37169L15.5598 7.99966L11.1603 9.62763C10.914 9.71879 10.7198 9.91302 10.6286 10.1594L9.00064 14.5589L7.37267 10.1594C7.28151 9.91302 7.08728 9.71879 6.84094 9.62763L2.44141 7.99966L6.84093 6.37169C7.08728 6.28053 7.28151 6.0863 7.37267 5.83996Z" stroke="black"/>
</svg>
