<svg width="24" height="24" viewBox="0 0 24 24" fill="none" xmlns="http://www.w3.org/2000/svg">
<g clip-path="url(#clip0_1_770)">
<path d="M22.3484 1.65002L1.64844 22.35" stroke="black" stroke-linecap="round"/>
<path d="M17.75 20.125C19.0617 20.125 20.125 19.0617 20.125 17.75C20.125 16.4383 19.0617 15.375 17.75 15.375C16.4383 15.375 15.375 16.4383 15.375 17.75C15.375 19.0617 16.4383 20.125 17.75 20.125Z" stroke="black"/>
<path d="M17.75 12V13.9167" stroke="black" stroke-linecap="round" stroke-linejoin="round"/>
<path d="M17.75 21.5834V23.5" stroke="black" stroke-linecap="round" stroke-linejoin="round"/>
<path d="M17.75 12V13.9167" stroke="black" stroke-linecap="round" stroke-linejoin="round"/>
<path d="M17.75 21.5834V23.5" stroke="black" stroke-linecap="round" stroke-linejoin="round"/>
<path d="M23.5026 17.75H21.5859" stroke="black" stroke-linecap="round" stroke-linejoin="round"/>
<path d="M13.9166 17.75H12" stroke="black" stroke-linecap="round" stroke-linejoin="round"/>
<path d="M21.8162 13.6842L20.4609 15.0395" stroke="black" stroke-linecap="round" stroke-linejoin="round"/>
<path d="M15.0389 20.4606L13.6836 21.8159" stroke="black" stroke-linecap="round" stroke-linejoin="round"/>
<path d="M21.8162 13.6842L20.4609 15.0395" stroke="black" stroke-linecap="round" stroke-linejoin="round"/>
<path d="M15.0389 20.4606L13.6836 21.8159" stroke="black" stroke-linecap="round" stroke-linejoin="round"/>
<path d="M21.8162 21.8157L20.4609 20.4604" stroke="black" stroke-linecap="round" stroke-linejoin="round"/>
<path d="M15.0389 15.0394L13.6836 13.6841" stroke="black" stroke-linecap="round" stroke-linejoin="round"/>
<path d="M9.80327 5.20459L8.75781 6.25004L9.80327 7.29549" stroke="black" stroke-linecap="round" stroke-linejoin="round"/>
<path d="M6.25 0.5V12" stroke="black" stroke-width="0.8" stroke-linecap="round"/>
<path d="M5.20312 1.54541L6.24858 2.59086L7.29402 1.54541" stroke="black" stroke-width="0.8" stroke-linecap="round" stroke-linejoin="round"/>
<path d="M7.29402 10.9546L6.24857 9.90918L5.20312 10.9546" stroke="black" stroke-width="0.8" stroke-linecap="round" stroke-linejoin="round"/>
<path d="M12 6.25H0.5" stroke="black" stroke-width="0.8" stroke-linecap="round"/>
<path d="M1.54688 7.29537L2.59232 6.24992L1.54688 5.20447" stroke="black" stroke-width="0.8" stroke-linecap="round" stroke-linejoin="round"/>
<path d="M10.3153 10.3158L2.18359 2.18408" stroke="black" stroke-width="0.8" stroke-linecap="round"/>
<path d="M10.8508 8.5498H8.55078V10.8498" stroke="black" stroke-width="0.8" stroke-linecap="round" stroke-linejoin="round"/>
<path d="M1.64844 3.9499H3.94844V1.6499" stroke="black" stroke-width="0.8" stroke-linecap="round" stroke-linejoin="round"/>
<path d="M10.3153 2.1842L2.18359 10.3159" stroke="black" stroke-width="0.8" stroke-linecap="round"/>
<path d="M8.55078 1.65002V3.95002H10.8507" stroke="black" stroke-width="0.8" stroke-linecap="round" stroke-linejoin="round"/>
<path d="M3.94844 10.8499V8.54993H1.64844" stroke="black" stroke-width="0.8" stroke-linecap="round" stroke-linejoin="round"/>
</g>
<defs>
<clipPath id="clip0_1_770">
<rect width="24" height="24" fill="white"/>
</clipPath>
</defs>
</svg>
