<svg width="127" height="33" viewBox="0 0 127 33" fill="none" xmlns="http://www.w3.org/2000/svg">
<g clip-path="url(#clip0_896_1003)">
<path fill-rule="evenodd" clip-rule="evenodd" d="M11.0731 7.76953H19.7547C24.4159 7.76953 26.1729 10.2969 25.8939 14.0215C25.4494 20.1625 21.9871 23.5545 17.3983 23.5545H15.0832C14.4527 23.5545 14.029 23.9979 13.8636 25.2173L12.8817 32.2563C12.8197 32.7107 12.5923 32.9768 12.2616 33.01H6.80459C6.28782 33.01 6.11212 32.5888 6.24648 31.6798L9.56411 9.09973C9.69847 8.20185 10.1532 7.76953 11.0731 7.76953Z" fill="#009EE3"/>
<path fill-rule="evenodd" clip-rule="evenodd" d="M48.753 7.34995C51.6779 7.34995 54.3857 9.05704 54.0137 13.3026C53.5693 18.3463 51.0474 21.1397 47.0684 21.1508H43.5957C43.0996 21.1508 42.8516 21.5831 42.7275 22.481L42.0557 27.0591C41.9524 27.7463 41.6217 28.09 41.1359 28.09H37.901C37.3842 28.09 37.2085 27.7352 37.3222 26.9482L39.9887 8.58039C40.123 7.67142 40.4331 7.33887 41.0119 7.33887H48.753V7.34995ZM43.482 17.1823H46.1175C47.7608 17.1158 48.8564 15.8965 48.97 13.6906C49.0321 12.3271 48.1742 11.3516 46.81 11.3627L44.3295 11.3738L43.482 17.1823ZM62.7987 26.6932C63.0984 26.405 63.3981 26.2609 63.3568 26.6157L63.2534 27.4692C63.2017 27.9126 63.3671 28.1454 63.7495 28.1454H66.6227C67.1085 28.1454 67.3462 27.9348 67.4599 27.1367L69.2272 15.2203C69.3202 14.6217 69.1755 14.3335 68.7518 14.3335H65.5892C65.2998 14.3335 65.1654 14.4998 65.0931 14.9653L64.9794 15.6969C64.9174 16.0738 64.752 16.1514 64.6073 15.7635C64.0699 14.4 62.7056 13.7903 60.7936 13.8458C56.3598 13.9455 53.3832 17.5481 53.0628 22.1706C52.8148 25.751 55.2022 28.5555 58.3545 28.5555C60.6386 28.5444 61.6618 27.8239 62.7987 26.6932ZM60.3905 24.8642C58.4888 24.8642 57.1556 23.2347 57.4347 21.2284C57.7137 19.2331 59.4914 17.5925 61.4034 17.5925C63.3154 17.5925 64.6383 19.222 64.3593 21.2284C64.0802 23.2236 62.3026 24.8642 60.3905 24.8642ZM74.8393 14.2892H71.9247C71.3253 14.2892 71.0772 14.7658 71.2736 15.3644L74.8909 26.7154L71.3459 32.1138C71.0462 32.5683 71.2839 32.9784 71.6973 32.9784H74.9736C75.015 32.9784 75.046 32.9895 75.0873 32.9895C75.4387 32.9895 75.7591 32.79 75.9451 32.4685L87.0659 15.3644C87.407 14.8434 87.2519 14.2892 86.6835 14.2892H83.5829C83.0558 14.2892 82.8388 14.5109 82.5391 14.9875L77.8985 22.1927L75.8315 14.9653C75.7074 14.5219 75.4077 14.2892 74.8393 14.2892Z" fill="#113984"/>
<path fill-rule="evenodd" clip-rule="evenodd" d="M98.6358 7.34995C101.561 7.34995 104.269 9.05704 103.896 13.3026C103.452 18.3463 100.93 21.1397 96.9512 21.1508H93.4785C92.9824 21.1508 92.7344 21.5831 92.6103 22.481L91.9386 27.0591C91.8352 27.7463 91.5045 28.09 91.0187 28.09H87.7838C87.267 28.09 87.0913 27.7352 87.205 26.9482L89.8818 8.58039C90.0162 7.6825 90.3262 7.33887 90.905 7.33887L98.6358 7.34995ZM93.3752 17.1823H96.0107C97.654 17.1158 98.7495 15.8965 98.8632 13.6906C98.9252 12.3271 98.0674 11.3516 96.7031 11.3627L94.2227 11.3738L93.3752 17.1823ZM112.681 26.6932C112.981 26.405 113.281 26.2609 113.24 26.6157L113.136 27.4692C113.085 27.9126 113.25 28.1454 113.632 28.1454H116.506C116.991 28.1454 117.229 27.9348 117.343 27.1367L119.11 15.2203C119.203 14.6217 119.058 14.3335 118.635 14.3335H115.482C115.193 14.3335 115.059 14.4998 114.986 14.9653L114.873 15.6969C114.811 16.0738 114.645 16.1514 114.5 15.7635C113.963 14.4 112.599 13.7903 110.697 13.8458C106.263 13.9455 103.287 17.5481 102.966 22.1706C102.718 25.751 105.106 28.5555 108.258 28.5555C110.542 28.5555 111.565 27.835 112.712 26.7043L112.681 26.6932ZM110.284 24.8642C108.382 24.8642 107.049 23.2347 107.328 21.2284C107.607 19.2331 109.385 17.5925 111.297 17.5925C113.198 17.5925 114.531 19.222 114.252 21.2284C113.973 23.2236 112.185 24.8642 110.284 24.8642ZM123.523 28.1565H120.206C120.195 28.1565 120.195 28.1565 120.185 28.1565C119.968 28.1565 119.792 27.968 119.792 27.7352C119.792 27.7131 119.792 27.6909 119.792 27.6798L122.707 7.89312C122.769 7.61599 122.996 7.41646 123.254 7.41646H126.572C126.582 7.41646 126.582 7.41646 126.593 7.41646C126.81 7.41646 126.986 7.60491 126.986 7.83769C126.986 7.85986 126.986 7.88203 126.986 7.89312L124.071 27.6798C124.019 27.9569 123.792 28.1565 123.523 28.1565Z" fill="#009EE3"/>
<path fill-rule="evenodd" clip-rule="evenodd" d="M5.65017 0H14.3421C16.7916 0 19.6958 0.0886799 21.6285 1.9177C22.9204 3.14814 23.6026 5.09909 23.4475 7.20524C22.9101 14.3218 18.9517 18.3013 13.629 18.3013H9.33987C8.60606 18.3013 8.13064 18.8223 7.92393 20.219L6.72504 28.3886C6.64236 28.9207 6.43565 29.2311 6.05325 29.2644H0.69957C0.110458 29.2644 -0.106583 28.7877 0.0484467 27.7235L3.90351 1.5519C4.05854 0.498824 4.59597 0 5.65017 0Z" fill="#113984"/>
<path fill-rule="evenodd" clip-rule="evenodd" d="M8.05469 19.4L9.57397 9.10203C9.70833 8.20414 10.1631 7.76074 11.0829 7.76074H19.7646C21.2012 7.76074 22.3587 8.00461 23.2682 8.44801C22.4001 14.7775 18.576 18.3026 13.5737 18.3026H9.30526C8.72648 18.3026 8.31307 18.6129 8.05469 19.4Z" fill="#172C70"/>
</g>
<defs>
<clipPath id="clip0_896_1003">
<rect width="127" height="33" fill="white"/>
</clipPath>
</defs>
</svg>
