<svg width="50" height="35" viewBox="0 0 50 35" fill="none" xmlns="http://www.w3.org/2000/svg">
<rect x="0.495833" y="1.25072" width="48.5917" height="32.725" rx="3.47083" fill="white" stroke="#D9D9D9" strokeWidth="0.991667"/>
<g clip-path="url(#clip0_689_3598)">
<path fill-rule="evenodd" clip-rule="evenodd" d="M6.75141 14.3447H9.69087C11.2691 14.3447 11.864 15.1872 11.7695 16.4287C11.619 18.4757 10.4467 19.6064 8.89302 19.6064H8.10916C7.8957 19.6064 7.75223 19.7542 7.69624 20.1606L7.3638 22.507C7.3428 22.6585 7.26582 22.7471 7.15384 22.7582H5.30618C5.13122 22.7582 5.07173 22.6178 5.11722 22.3148L6.24051 14.7881C6.286 14.4888 6.43997 14.3447 6.75141 14.3447Z" fill="#009EE3"/>
<path fill-rule="evenodd" clip-rule="evenodd" d="M19.5099 14.2049C20.5002 14.2049 21.4171 14.7739 21.2911 16.1891C21.1406 17.8703 20.2868 18.8014 18.9395 18.8051H17.7637C17.5958 18.8051 17.5118 18.9492 17.4698 19.2485L17.2423 20.7746C17.2073 21.0037 17.0954 21.1182 16.9309 21.1182H15.8356C15.6606 21.1182 15.6011 21 15.6396 20.7376L16.5425 14.615C16.588 14.312 16.6929 14.2012 16.8889 14.2012H19.5099V14.2049ZM17.7252 17.4823H18.6176C19.174 17.4602 19.5449 17.0537 19.5834 16.3184C19.6044 15.8639 19.3139 15.5388 18.852 15.5425L18.0122 15.5462L17.7252 17.4823ZM24.2655 20.6526C24.367 20.5566 24.4685 20.5085 24.4545 20.6268L24.4195 20.9113C24.402 21.0591 24.458 21.1367 24.5875 21.1367H25.5603C25.7248 21.1367 25.8052 21.0665 25.8437 20.8004L26.4421 16.8283C26.4736 16.6288 26.4246 16.5327 26.2811 16.5327H25.2104C25.1124 16.5327 25.0669 16.5881 25.0424 16.7433L25.0039 16.9872C24.9829 17.1128 24.9269 17.1387 24.8779 17.0094C24.6959 16.5549 24.234 16.3517 23.5867 16.3701C22.0854 16.4034 21.0776 17.6043 20.9691 19.1451C20.8852 20.3386 21.6935 21.2734 22.7608 21.2734C23.5342 21.2697 23.8806 21.0295 24.2655 20.6526ZM23.4502 20.043C22.8063 20.043 22.3549 19.4998 22.4494 18.831C22.5438 18.1659 23.1457 17.619 23.7931 17.619C24.4405 17.619 24.8884 18.1622 24.7939 18.831C24.6994 19.4961 24.0976 20.043 23.4502 20.043ZM28.3423 16.5179H27.3554C27.1525 16.5179 27.0685 16.6768 27.135 16.8763L28.3598 20.66L27.1595 22.4595C27.058 22.611 27.1385 22.7477 27.2785 22.7477H28.3878C28.4018 22.7477 28.4123 22.7514 28.4263 22.7514C28.5452 22.7514 28.6537 22.6849 28.7167 22.5777L32.482 16.8763C32.5975 16.7027 32.545 16.5179 32.3525 16.5179H31.3027C31.1242 16.5179 31.0508 16.5918 30.9493 16.7507L29.3781 19.1525L28.6782 16.7433C28.6362 16.5955 28.5347 16.5179 28.3423 16.5179Z" fill="#113984"/>
<path fill-rule="evenodd" clip-rule="evenodd" d="M36.3981 14.2049C37.3884 14.2049 38.3052 14.7739 38.1793 16.1891C38.0288 17.8703 37.1749 18.8014 35.8277 18.8051H34.6519C34.4839 18.8051 34.4 18.9492 34.358 19.2485L34.1305 20.7746C34.0955 21.0037 33.9835 21.1182 33.8191 21.1182H32.7238C32.5488 21.1182 32.4893 21 32.5278 20.7376L33.4341 14.615C33.4796 14.3157 33.5846 14.2012 33.7806 14.2012L36.3981 14.2049ZM34.6169 17.4823H35.5093C36.0657 17.4602 36.4366 17.0537 36.4751 16.3184C36.4961 15.8639 36.2056 15.5388 35.7437 15.5425L34.9039 15.5462L34.6169 17.4823ZM41.1537 20.6526C41.2552 20.5566 41.3567 20.5085 41.3427 20.6268L41.3077 20.9113C41.2902 21.0591 41.3462 21.1367 41.4756 21.1367H42.4485C42.6129 21.1367 42.6934 21.0665 42.7319 20.8004L43.3303 16.8283C43.3618 16.6288 43.3128 16.5327 43.1693 16.5327H42.102C42.0041 16.5327 41.9586 16.5881 41.9341 16.7433L41.8956 16.9872C41.8746 17.1128 41.8186 17.1387 41.7696 17.0094C41.5876 16.5549 41.1257 16.3517 40.4818 16.3701C38.9806 16.4034 37.9728 17.6043 37.8643 19.1451C37.7803 20.3386 38.5887 21.2734 39.656 21.2734C40.4293 21.2734 40.7758 21.0332 41.1642 20.6563L41.1537 20.6526ZM40.3419 20.043C39.698 20.043 39.2466 19.4998 39.341 18.831C39.4355 18.1659 40.0374 17.619 40.6848 17.619C41.3287 17.619 41.7801 18.1622 41.6856 18.831C41.5911 19.4961 40.9857 20.043 40.3419 20.043ZM44.8245 21.1404H43.7012C43.6977 21.1404 43.6977 21.1404 43.6942 21.1404C43.6208 21.1404 43.5613 21.0776 43.5613 21C43.5613 20.9926 43.5613 20.9852 43.5613 20.9815L44.5481 14.3859C44.5691 14.2935 44.6461 14.227 44.7335 14.227H45.8568C45.8603 14.227 45.8603 14.227 45.8638 14.227C45.9373 14.227 45.9968 14.2899 45.9968 14.3674C45.9968 14.3748 45.9968 14.3822 45.9968 14.3859L45.01 20.9815C44.9925 21.0739 44.9155 21.1404 44.8245 21.1404Z" fill="#009EE3"/>
<path fill-rule="evenodd" clip-rule="evenodd" d="M4.91452 11.7549H7.85747C8.68681 11.7549 9.67013 11.7844 10.3245 12.3941C10.7619 12.8043 10.9929 13.4546 10.9404 14.1566C10.7584 16.5288 9.41818 17.8553 7.61601 17.8553H6.16378C5.91533 17.8553 5.75436 18.029 5.68437 18.4946L5.27845 21.2178C5.25045 21.3951 5.18047 21.4986 5.05099 21.5097H3.23833C3.03886 21.5097 2.96538 21.3508 3.01787 20.9961L4.32313 12.2722C4.37562 11.9212 4.55758 11.7549 4.91452 11.7549Z" fill="#113984"/>
<path fill-rule="evenodd" clip-rule="evenodd" d="M5.72607 18.2215L6.24048 14.7889C6.28597 14.4896 6.43994 14.3418 6.75138 14.3418H9.69084C10.1772 14.3418 10.5692 14.4231 10.8771 14.5709C10.5832 16.6807 9.28841 17.8557 7.59473 17.8557H6.1495C5.95353 17.8557 5.81356 17.9592 5.72607 18.2215Z" fill="#172C70"/>
</g>
<defs>
<clipPath id="clip0_689_3598">
<rect width="43" height="11" fill="white" transform="translate(3 11.7549)"/>
</clipPath>
</defs>
</svg>
